<?xml version="1.0" encoding="UTF-8"?>
<svg id="Ebene_1" data-name="Ebene 1" xmlns="http://www.w3.org/2000/svg" viewBox="0 0 279.81 423.47">
  <defs>
    <style>
      .cls-1 {
        fill: #fff;
      }
    </style>
  </defs>
  <path class="cls-1" d="M275.27,106.46c-2.88-18.99-7.98-27.41-17.33-43.13-4.55-7.65-7.41-19.39-13.15-26.43-11.51-14.12-33.95-27.57-51.24-32.91-40.03-12.36-92.8,5.81-125.89,29.02-5.99,4.2-7.76,9.27-11.68,14.94-10.95,15.87-22.7,28.23-24.97,48.43-1.3,11.59-.69,20.21-5.09,31.62-2.51,6.52-2.7,3.67-7.18,5.77-.89.41-9.67,13.45-10.62,15.28-1.54,2.96-4.04,12.33-4.43,15.73-.45,4.01.75,10.92-.21,14.19C3.02,180.56,0,181.72,0,183.44c0,2.85,7.01,5.1,9.36,5.77,8.48,2.44,10.95-.74,8.3,10.45-1.79,7.54-4.6,15.01-6.06,22.73-3.85,20.44.63,32.63,4.75,51.97,1.27,5.96,1.87,12.05,3.77,17.87.17,3.51-3.91,4.54-3.48,6.96.28,1.57,2.21,2.8,2.84,4.42.6,1.54.41,3.42,1.04,4.72.45.91,1.73,1.37,2.32,2.72,2.58,5.9,1.09,14.49,2.47,19.12.29.98,1.66,1.73,2.17,2.86,1.51,3.37,4.43,10.34,3.36,13.75-.42,1.34-2.23.79-2.84,1.62-1.89,2.56.66,3.63,1.64,5.51.64,1.22,1.07,3.31,1.67,4.09,1.07,1.4,3.24.77,3.59,2.83.37,2.23-1.4,2.08-2.11,2.98-1.8,2.28-.95,4.88-1.13,7.54-.1,1.5-1.31,3.46-.42,4.72.76,1.08,3.39.27,5.13,1.35,2.1,1.3,4.2,6.73,5.81,7.17,2.75.75,2.22-4.07,5.29-2.47.7.37,4.86,4.79,5.2,5.6.95,2.23.23,3.92.55,5.93.29,1.82,3.6,4.06,5.24,4.83,2.03.96,7.78,2.01,9.13,3.1,1.05.85.8,3.02,2.18,4.29,1.52,1.39,4.56,1.72,6.42,2.93,2.58,1.69,3.81,6.33,7.43,5.28,1.26-.36,1.68-2.51,3.61-2,1.61.42,6.94,6.48,8.75,7.85,5.57,4.2,4.82-3.77,7.78-3.5,2.81.25,3.41,5.19,5.97,6.34,1.85.41,2.75-4.33,4.94-4.31,1.78.01,3.31,3.38,4.69,4.03,1.05.49,2.12-.45,3.19-.39,2.98.18,3.09,2.97,7.54-.41,1.64-1.24,2.06-2.86,3.26-3.94,1.45-1.31,4.98-2.02,5.8-3.58,1.43-2.72-3.06-4.96-3.05-6.84,0-.99,1.46-1.98,1.77-3.05.56-1.96-.21-6.67,4-3.84.87.59,1.03,2.53,2.25,3.67.79.74,4.84,2.8,5.83,2.87,1.48.1,7.13-4.15,8.23-5.39.88-.99,1.11-2.85,1.88-3.32,1.39-.86,3.79-.34,4.46-.77.99-.63.6-4.66.95-5.89.43-1.5,2.18-1.49,2.79-2.42.86-1.33.84-3.92,1.79-5.23.2-.27,4.36-4.54,4.64-4.71,1.08-.65,4.41-.41,4.9-1.22.34-.56-.04-1.86.48-2.74.5-.84,2.36-1.09,2.89-2.16.72-1.43.09-3.31,1.16-5.32,1.39-2.61,5.18-3.51,6.05-6.18.62-1.9,1.73-9.99,1.69-11.95-.07-3.44-3.62-2.82,1.57-7.11,4.93-4.07,12.49-9,17.97-12.96,2.48-1.79,6.19-3.32,8.53-5.14,5.72-4.44,8.41-11.38,10.85-17.93,1.82-4.88,5.59-22.04,7.24-24.43,1.11-1.61,4.79-3.59,6.4-5.11,13.89-13.09,17.65-25.52,23.73-43.2,4.68-13.62,5.91-24.79,7.96-38.82.65-4.45,2.42-9.38,2.8-13.76,2.14-24.88.06-50.34-3.66-74.81ZM18.62,183.7c-1.55,1.07-8.32-.56-8.92-2.72-1.81-6.5.84-18.72,2.91-25.27.34-1.07,2.62-7.84,4.67-5.75.24.24-.69,3.59-.75,4.64-.22,3.9-.33,9.9.04,13.72.28,2.89,4.17,13.93,2.06,15.38Z"/>
  <path d="M179.63,378.16c-.5.81-3.82.56-4.9,1.22-.29.17-4.45,4.44-4.64,4.71-.95,1.31-.93,3.9-1.79,5.23-.61.93-2.36.92-2.79,2.42-.35,1.23.03,5.26-.95,5.89-.67.43-3.07-.09-4.46.77-.77.48-1,2.33-1.88,3.32-1.1,1.24-6.75,5.49-8.23,5.39-.99-.07-5.04-2.14-5.83-2.87-1.23-1.14-1.38-3.08-2.25-3.67-4.21-2.84-3.43,1.88-4,3.84-.31,1.06-1.76,2.06-1.77,3.05-.01,1.88,4.48,4.12,3.05,6.84-.83,1.57-4.36,2.28-5.8,3.58-1.2,1.08-1.62,2.7-3.26,3.94-4.45,3.37-4.56.59-7.54.41-1.07-.07-2.13.88-3.19.39-1.38-.64-2.91-4.01-4.69-4.03-2.2-.02-3.1,4.72-4.94,4.31-2.55-1.15-3.16-6.08-5.97-6.34-2.96-.27-2.21,7.7-7.78,3.5-1.81-1.37-7.15-7.42-8.75-7.85-1.93-.51-2.35,1.63-3.61,2-3.63,1.05-4.85-3.59-7.43-5.28-1.86-1.22-4.9-1.54-6.42-2.93-1.39-1.27-1.13-3.45-2.18-4.29-1.35-1.09-7.1-2.14-9.13-3.1-1.63-.77-4.94-3.02-5.24-4.83-.33-2.01.39-3.69-.55-5.93-.34-.81-4.5-5.23-5.2-5.6-3.07-1.6-2.54,3.22-5.29,2.47-1.61-.44-3.71-5.87-5.81-7.17-1.74-1.08-4.36-.27-5.13-1.35-.89-1.26.32-3.22.42-4.72.18-2.66-.67-5.26,1.13-7.54.71-.9,2.49-.75,2.11-2.98-.35-2.06-2.52-1.42-3.59-2.83-.59-.78-1.03-2.87-1.67-4.09-.98-1.88-3.53-2.94-1.64-5.51.61-.83,2.42-.28,2.84-1.62,1.08-3.42-1.85-10.38-3.36-13.75-.51-1.14-1.88-1.89-2.17-2.86-1.38-4.63.11-13.22-2.47-19.12-.59-1.35-1.87-1.8-2.32-2.72-.64-1.3-.44-3.18-1.04-4.72-.63-1.63-2.56-2.85-2.84-4.42-.44-2.42,3.64-3.45,3.48-6.96-1.89-5.82-2.5-11.92-3.77-17.87-4.12-19.34-8.61-31.53-4.75-51.97,1.45-7.72,4.27-15.19,6.06-22.73,2.65-11.18.18-8.01-8.3-10.45-2.35-.68-9.36-2.92-9.36-5.77,0-1.72,3.02-2.88,3.49-4.46.96-3.27-.25-10.18.21-14.19.38-3.39,2.89-12.77,4.43-15.73.95-1.83,9.73-14.87,10.62-15.28,4.49-2.1,4.67.76,7.18-5.77,4.4-11.41,3.78-20.03,5.09-31.62,2.27-20.2,14.02-32.56,24.97-48.43,3.91-5.68,5.69-10.74,11.68-14.94C100.77,9.9,153.54-8.27,193.57,4.09c17.3,5.34,39.73,18.79,51.24,32.91,5.74,7.04,8.6,18.79,13.15,26.43,9.35,15.71,14.44,24.14,17.33,43.13,3.72,24.48,5.8,49.93,3.66,74.81-.38,4.38-2.14,9.31-2.8,13.76-2.06,14.03-3.29,25.2-7.96,38.82-6.07,17.67-9.83,30.1-23.73,43.2-1.61,1.52-5.29,3.5-6.4,5.11-1.65,2.39-5.42,19.54-7.24,24.43-2.45,6.55-5.14,13.49-10.85,17.93-2.34,1.82-6.05,3.35-8.53,5.14-5.48,3.96-13.03,8.89-17.97,12.96-5.19,4.28-1.64,3.66-1.57,7.11.04,1.96-1.07,10.05-1.69,11.95-.87,2.66-4.67,3.56-6.05,6.18-1.07,2.01-.44,3.89-1.16,5.32-.53,1.07-2.4,1.32-2.89,2.16s-.13,2.18-.48,2.74ZM112.14,160.8c.33-.22,1.78-6.53,2.04-7.67.74-3.16-.6-6.66,4.16-7.35s19.6-.61,24.35.01c3.66.48,16.91,4.53,20.54,6.06,5.79,2.44,10.82,7.26,15.85,10.76,3.65,2.54,12.14,6.01,12.86,10.88.49,3.3-.53,7.4.19,10.61s4.25,3.49,6.54,4.97c14.71,9.51,29.88,18.31,45.28,26.65,2.69,1.46,16.59,8.99,18.26,9.09,2.68.16,3.81-6.36,4.31-8.37,5.16-20.88,5.54-42.67,7.41-63.86.96-10.9-4.07-42.9-6.8-54.39-3.38-14.26-9.06-21.25-15.61-33.33-6.04-11.13-8.85-19.69-18.53-28.96-27.13-25.95-64-33.75-100.1-23.89-22.1,6.04-42.94,13.16-60.88,27.57-12.17,9.77-20.03,27.03-29.67,39.4-4.16,11.76-4.59,23.99-6.4,36.07-.33,2.18-2.54,10.19-1.77,11.28.72,1.03,5.73.82,7.24.67,3.42-.33,9.51-2.9,12.11-5.14,1.36-1.17,5.6-7.99,8.05-4.26,2.18,3.32-4.03,8.93-6.51,10.85-2.13,1.64-9.04,4.92-11.56,5.01-2.82.1-5.65-1.79-8.2,1.83.7.89,1.61,1.33,2.68,1.63,11.24,3.12,19.73,2.56,30.61,8.94,2.29,1.34,10.95,8.91,11.77,9.14,1.64.46,4.97-1.13,7.04-1.34,5.66-.57,14.25.73,19.01,4,1.36.94,3.68,4.55,5.74,3.15ZM27.47,142.96c-3.36,7-5.74,13.82-5.05,21.77.35,4.05,2.29,8.11,2.74,11.65.67,5.21-2.14,9.99,4.88,11.67,3.45.82,9.7,2.6,12.85,2.97,5.23.61,10.46-.72,15.78-.68,2.49.01,3.56,1.53,6.06-.35,2.93-2.2,8.56-13.72,9.19-17.42.7-4.05-.98-4.26-1.31-7-.3-2.52.91-4.85.78-6.51-.15-1.85-5.48-6.02-7.26-7.15-7.54-4.8-21.64-8.04-30.57-8.98-2.66-.28-5.43-.09-8.08.03ZM17.3,150.06c-2.05-2.08-4.34,4.68-4.67,5.75-2.07,6.55-4.72,18.76-2.91,25.27.6,2.16,7.38,3.79,8.92,2.72,2.11-1.46-1.78-12.5-2.06-15.38-.36-3.81-.25-9.81-.04-13.72.06-1.05.99-4.4.75-4.64ZM152.44,201.16c.6.74,5.34.67,6.68.87,3.62.56,7.75,1.67,11.65,2.02,2.14.19,7.64.82,8.96-.38.68-.62,4.84-11,5.02-12.25.24-1.6-.16-3.31.1-4.94,1.34-8.53,3.33-9.63-4.42-15.87-9.61-7.74-26.24-16.71-38.47-18.34-2.24-.3-19.63-.32-20.47.27-2.42,7.31-5.92,14.53-6.46,22.32-.23,3.24-.48,11.34,1.44,13.74,3.63,4.53,19.9,9.64,25.9,10.41-3.59-4.61-8.74-8.08-11.38-13.44-.89-1.81-3.25-8.95-3.02-10.65.36-2.69,9.1-9.3,11.86-10.5,13.13-5.71,20.73-.74,28.72,9.44,1.22,1.56,1.9,3.47,2.98,4.94,3.43,4.69,9.01,6.84,3.91,13.36-2.15,2.75-12.06,6.82-15.62,7.39-2.12.34-4.2.06-6.32.16-1.16.06-1.84.47-1.06,1.43ZM190.61,194.05c-.82.58-4.86,15.56-8.03,18.24-2.7,2.28-6.52-1.79-9.83-2.31-16.23-2.56-30.83-1.99-46.76-8.6-3.03-1.26-13.63-6.9-15.17-9.28-3.59-5.54.4-16.88-2.66-23.25-4.13-8.6-18.25-10.65-26.37-7.12-5.79,2.52-2.97,6.64-3.43,10.94-.77,7.22-6.47,13.81-9.89,19.65s-4.97,13.44-6.43,20.2c-.66,3.05-.12,5.8-1.78,9.02s-4.02,1.6-4.06-1.25c-.09-5.2,3.68-14.14,4.17-19.55.1-1.08.38-2.9-.62-3.57-1.6-1.06-16.29.06-19.82-.31-3.13-.33-6.31-2.23-9.51-2.71-7.45-1.11-4.87.57-6.1,5.77-4.38,18.55-10.35,30.88-6.83,51.1l6.65,29.34c5.8,6,5.83-2.75,8.25-3.96,1.48-.74,3.13-.11,4.65-.38.36-.06,6.52-2.33,6.84-2.51.56-.32,3.62-6.44,5.39-8.28,4.64-4.81,7.89-4.06,8.29,2.89,2.57,1.02,3.27-2.71,4.07-2.91,1.95-.48,3.96.84,5.59.74,1.55-.1,2.89-1.86,4.7-1.43.01,1.45-.26,2.92.37,4.32.71,1.59,4.02,2.23,3.99,3.95-.04,2.97-4.02,2.29-5.83,2.85s-3.73,3.07-5.01,3.62c-1.42.61-2.91.13-4.29.74-1.21.53-2.81,3.57-4.09,3.89-1.52.38-2.23-1.31-3.41-1.33-1.04-.02-2.22,1.03-3.52.62s-1.68-3.62-3.57-3.44c-2.04.2-8.25,5.27-9.44,7.13-2.22,3.46.13,4.5-.48,6.66-.31,1.07-2.12,1.65-2.09,3.01.06,3.43,5.48,5.12,5.73,5.46.63.86-1.1,3.54-1.18,4.72-.07.9,1.28,10.6,1.56,11.09.54.94,1.03.67,1.86.39,4.48-1.52,9.81-5.86,14.14-6.73,6.47-1.3,14.96.31,21.21,2.19,2.47.74,3.46,2.44,6.5,1.84,5.22-1.02,5.77.38,9.48.12,1.48-.1,2.49-1.63,4.18-1.33,1.46.26,5.67,3.95,8.25,4.77,3.01.95,2.08-.97,3.02-1.62.89-.61,2.44-.21,3.61-.74.35-.16,5.72-4.26,6.13-4.66,1.04-1.02,3.22-5.77,3.63-5.81,5.23-.43,2.89,8.61,3.95,9.36.41.29,2.32.1,2.88-.27,1.13-.75.49-4.96,1.01-6.91.44-1.67,2.53-5.51,4.37-5.76,5.47-.75,4.47,6.5,5.46,7.13.52.33,2.04-.02,2.96.25,1.04.3,2.1,1.3,3.07,1.29,5.3-.06,9.96-23.45.35-19.08-4,1.82-.73,6.8-1.45,7.55-1.37,1.43-2.9-2.02-3.77-2.4-3.07-1.33-10.21,3.07-13.48,4.2-20.45,7.06-24.91.94-43.14-4.29-11.83-3.39-27.3,2.41-40.61,1.07-1.59-.16-4.46-.81-3.86-3.14.81-3.13,4.18-1.25,6.03-1.19,11.71.42,24.56-3.43,35.25-2.19,4.55.53,10.39,3.87,14.86,5.27,12.63,3.95,18.1,4.69,30.75.15,1.9-.68,10.43-4.17,11.51-5.04s.63-.65,0-1.44c-3.21-4.09-5.11.14-7.41-.45-1.95-.5-2.49-4.09-4.47-4.29s-2.62,1.65-4.14,2.38c-.97.47-6.44,2.33-7.51,2.55-1.36.28-6.49.74-5.95-1.63.14-.62,2.2-1.37,2.07-2.77s-3.21-3.67-2.07-6.24c-3.62,2.7-3.34,5-7.86,1.76-1.14-.82-2.28-2.73-3.41-3.06-1.7-.5-3.79.11-5.59-.16-1.91-.29-3.28-2.39-5.12-.74-.82.73-1.4,3.73-3.81,2.13-.34-.23-1.63-6.3-2.63-7.8-1.64-2.44-7.47-2.48-3.54-7.24,1.25-.26,10.95,6.95,12.21,8.64,2.34.12.1-3.52,1.75-4.72s3.5,1.51,5.29,1.05c2.85-.74,1.44-6.8,7.64-2.4,2.35,1.67,5.35,6.91,5.78,7.17.94.55,2.43.2,3.59.72,1.77.8,6.45,8.16,8.65,6.52s.51-3.85,6.11-3.32c5.16.49,5.17,5.47,6.46,5.78,1.44.35,1.73-1.99,2.49-2.55,1.76-1.3,2.76,1.06,4.13,1.67,4.98,2.22,7.32,1.33,12.38.18.33.24,1.79,6.48,2.6,7.85,1.68,2.85,5.33,5.92,6.47,9.36.52,1.57,0,7.82,1.48,8.02,2.4.08,4.61-.95,5.16-3.44.73-3.3.34-11.91.18-15.72-.13-3.31-1.37-6.86-.75-10.41h2.15c.95,8.19,2.23,16.53,1.44,24.84-.32,3.37-2.74,7.61-2.85,10.13-.07,1.6,1.14,3.03.58,4.84-.31,1.01-4.32,4.05-1.62,4.78,1.65.44,3.8-.64,5.65-.7,3.46-.12,14.59-.59,17.15.16,3.63,1.06,1.45,9.46,5.04,9.13,1.72-.16,8.55-6.69,10.59-8.14,2.64-1.88,6.44-3.46,8.95-5.44,8.51-6.71,11.24-24.55,14.53-34.41,3.2-9.59,10.36-12.49,16.39-19.59,5.53-6.52,11.09-21.24,13.51-29.67.31-1.09.79-2.66.54-3.73-.19-.81-12.91-6.42-14.91-7.53-9.57-5.33-19.18-10.52-28.75-15.84-6.7-3.72-16.33-11.4-22.71-13.97-.99-.4-3.26-1.03-4.04-.48ZM168.97,183.17c1.26-1.27-4.19-8.05-5.38-9.37-5.05-5.65-9.2-8.23-17.1-7.02-5.66.86-16.1,7.03-4.47,6.32,5.32-.33,8.03-.75,13.3,1.79,2.44,1.17,11.8,10.15,13.64,8.29ZM147.41,177.42c-3.31.16-13.06-1.11-13.51,3.36-.24,2.33,8.91,15.69,13.51,13.2.59-2.88-2.09-4.82-2.2-7.56-.14-3.34,2.51-5.73,2.21-8.99ZM159.63,193.97c1.96.7,9.78-1.62,9.29-3.87-.33-1.56-7.44-6.01-8.57-4.77.25,2.95-.18,5.77-.72,8.64ZM53.96,270.3l-3.39.56c-.61,1.14-5.09,2.07-4.5,3.39.68,1.52,1.62.82,2.69.58,2.75-.62,6.08-.86,5.21-4.53ZM153.87,309.18c-.83-.9-4.81,3.52-4.94,4.8-.16,1.72,2.6,2.29,3.47,3.47.1,1.2-5.48,4.63-.91,5.99.58.17,6.66.93,7,.85,3.74-.9-2.55-4-2.86-4.28-2.88-2.55-1.46-7.37-1.78-10.82ZM144.53,313.5c-5-.56-4.49,3.36-4.31,7.19,4.47-.19,3.36-3.95,4.31-7.19ZM71.93,319.97c.31-2.82-4.83-4.29-3.59-1.08.49,1.25,2.39,1.18,3.59,1.08ZM90.31,317.83c-5.11,1.28,6.28,6.68,7.44,3.16,1.43-4.35-2.83-2.53-4.54-2.5-.86.01-2.02-.88-2.9-.66ZM118.08,324.16c-.81-1.1,1.42-8.61-3.75-6-1.96.99-1.89,10.81-1.29,12.83.31,1.04,2.67,3.21,3.81,3.4,1.45.25.92-.32,1.25-.94.71-1.34,2.38-7.58,1.67-8.46-.37-.46-1.43-.49-1.68-.83ZM110.86,336.43c-.64-.54-.59-5.05-1.19-6.37-.14-.31-3.3-5.27-3.63-5.73-.35-.48-3.77-3.02-4.26-2.92-2.59.52.1,6.88,1.02,8.14s6.58,2.16,3.3,4.86c-1.04.86-3.52.18-2.53,2.47.79,1.84,4.32.72,5.97,1.21,1.12.33,1.8,2.24,2.92,1.99.6-.14,2.05-1.68,1.88-2.47-.28-1.34-3.05-.83-3.48-1.19ZM59.35,322.85v.72c.47-.24.47-.48,0-.72ZM133.03,324.3c-3.08-1.11-4.7,3.32-6.95,3.5-1.11.09-1.78-1.62-3.11-1.34-.87,2.89-1.23,6.01-2.33,8.83-1.36,3.52-4.31,5.7-3.43,9.89l10.28-1.58c1.33-.49,6.56-11.33,6.27-13.13-.31-1.89-2.29-2.99-.74-6.16ZM92.06,325.74c-.88-.89-6.57,3.42-7.54,4.32-3.44,3.18,3.85,4.9,5.95,2.72.63-.65,1.97-6.66,1.59-7.04ZM79.12,326.45h-2.15c-.27,1.73.34,3.05,2.15,2.88v-2.88ZM175.36,326.31l-.57,1.73,2.17.72.57-1.73-2.17-.72ZM43.89,328.61v-1.43h-.71v1.43h.71ZM72.84,330.04c0-.49-.4-.89-.89-.89s-.89.4-.89.89.4.89.89.89.89-.4.89-.89ZM153.52,330.78c-1.35.3-1.54,2.89,0,3.59l1.79-1.8c.2-.87-.88-1.99-1.79-1.79ZM184.49,330.8c-4.53,1.27,4.57,8.53,3.92,2.49-.16-1.47-2.51-2.89-3.92-2.49ZM145.62,332.21c-1.17.26-2.71,3.03-.72,3.59,3.21.91,3.12-4.13.72-3.59ZM68.34,333.66c-.07-.1-2.06-.58-2.4-.55-2.46.24-5.75,3.6-5.5,6.3,1.67-.36,9.56-3.38,7.9-5.75ZM76.24,375.42c-3.26-.34-5.42-1.66-4.2-5.3.53-1.57,11.76-6.8,13.73-11.45,2.47-5.86.04-7.51-1.14-12.23-.46-1.82.21-3.86,2.42-3.15,1.38.45,4.65,6.07,5.07,1.51.17-1.91-3.32-4.89-4.89-5.28-1.75-.43-3.1,1.54-4.13,1.33-1.64-.33-.7-4-1.4-5.09-2.36-3.65-17.97,5.12-20.92,7.23-.38,4.18.74,8.88,1.01,13.19-3.31,1.95-2.87,6.8-3.84,8.45-.5.84-2.54.77-2.55,2.5,0,2.08,3.28,2.19,3.59,1.79.38-.51.16-5.12,1.82-4.29,2.28,1.14,1.54,6.41,2.87,7.93,1.04,1.19,2.99.35,4.02,1.02.95.61.48,2.83,1.03,4.01,1.39,2.98,7.56,1.39,7.54-2.15ZM108.59,360.29c.99-.7-.15-4.71,0-6.06.24-2.13,2.81-4.21,2.09-6.43-.45-1.37-6.17-4.38-7.5-5.49-1.1-.93-2.34-3.89-3.57-3.61-2.48.55.1,5.43.3,6.89.27,2.02-.35,4.47.19,6.29.37,1.27,3.17,3.18,4.18,4.45.72.9,2.06,5.56,4.3,3.97ZM182.53,340.23c-.08-.12-1.56-.65-1.86-.68-4.43-.35-1.42,5.43,1.96,4.18-.15-.95.34-2.87-.09-3.5ZM140.93,343.01c.22-1.31-.75-2.36-2.15-2.15v2.15s2.15,0,2.15,0ZM41.47,341.66c-2.15.7-.94,2.73.94,3.19,3.41.84,4.15-4.84-.94-3.19ZM168.25,343.02c-4.4-.78-.96,3.11,0,2.15v-2.15ZM96.01,344.46c-1.53,1.1-1.53,2.48,0,3.58,1.53-1.1,1.53-2.48,0-3.58ZM49.11,348.23c-3.18,3.14,3.17,8.25,4.56,2.01.81-3.63-2.9-3.65-4.56-2.01ZM155.13,347.47c-2.3.4-8.15,1.67-5.96,4.94,1.65,2.47,4.06-.92,5.23-1.32,1.45-.49,4.57.21,3.79-2.68-.32-1.19-2.01-1.13-3.06-.95ZM119.11,348.87c-2.41.79-.49,3.79-.63,5.22s-2.88,3.35,1.23,3.36c5.83.02,9.63-7.75,4.32-8.66-1.1-.19-3.95-.23-4.92.09ZM167.53,348.78h-1.43v2.15h1.43v-2.15ZM139.5,349.5h-1.43c-.23,1.07.32,1.49,1.08,2.15l.35-2.15ZM188.57,354.15c0-.9-.73-1.64-1.63-1.64s-1.63.73-1.63,1.64.73,1.64,1.63,1.64,1.63-.73,1.63-1.64ZM89.19,358.85c1.54,1.58,6.21-4.24,3.22-5.04-2.82-.76-4.05,4.18-3.22,5.04ZM53.6,354.54c-3.55,2.12-4.95,12.62.31,8.22,3-2.51,3.02-6.05-.31-8.22ZM180.47,358.14v1.07c3.82,3.43,5.51-3.33,0-1.07ZM152.43,360.3c-.6-.61-2.71,1.2-2.87,2.15,1.44.71,3.72-1.3,2.87-2.15ZM165.13,361.15c-.72.08-2.22,1.06-2.7,1.63-1.5,1.78,1.1,4.2,1.4,5.96.24,1.42-.84,3.04-.31,3.79,1.39,2,7.55,1.43,1.14,5.4.21,2.3,2.45,2.08,3.89,1.01,2.13-1.59,2.16-9.16,1.88-11.84-.25-2.35-2.73-6.25-5.3-5.96ZM158.86,363.16c0-.77-.62-1.4-1.4-1.4s-1.4.63-1.4,1.4.62,1.4,1.4,1.4,1.4-.63,1.4-1.4ZM107.15,367.49c1.34-1.41-2.18-5.76-3.59-4.31-1,1.02,2.08,5.9,3.59,4.31ZM122.25,363.17h-2.15c-.27,1.73.34,3.05,2.15,2.88v-2.88ZM127.46,366.04c0-.49-.4-.89-.89-.89s-.89.4-.89.89.4.89.89.89.89-.4.89-.89ZM177.11,368.04c0-.83-.68-1.51-1.51-1.51s-1.51.68-1.51,1.51.68,1.51,1.51,1.51,1.51-.68,1.51-1.51ZM155.31,368.22c-1.81-.18-2.42,1.15-2.15,2.87h2.15s0-2.87,0-2.87ZM94.21,368.94c-7.46,1.39-1.61,9.28.15,13.17.43.96.39,2.02.72,2.87.5,1.28,2.24,1.73,2.72,1.23.93-.98-1.2-3.92-1.3-4.8-.3-2.53,4.09-4.55-3.06-7.18l.76-5.3ZM111.47,375.41c1.46.29,1.89-1.36,3.25-1.46,1.53-.11,4.43,2.11,4.71-1.07.5-5.72-9.26-1.63-7.96,2.53ZM50.36,373.97c.09-1.41.21-3.15-1.43-3.6-.65,2.02-1.24,3.57,1.43,3.6ZM56.12,376.12c.13.15,2.5,1.07,3.61,1.8s.73,1.79,2.13.01c-.06-1.85-8.18-4.65-5.74-1.81ZM127.2,383.97c1.63-2.29-2.74-7.88-5.58-4.51-2.4,2.85-2.84,4.56-.69,7.71,3.55,5.21,2.53-.93,3.63-2.24.54-.65,2.36-.57,2.64-.96ZM160.13,382.01c-.83.13-4.45,2.45-4.71,3.23-.5,1.47.18,6.99,1.7,7.44,2.52.75,2.56-2.68,3.61-4.28s3.39-3.09,4.64-4.71c.03-.86-4.34-1.82-5.23-1.68ZM70.49,387.65c.08-1.02.09-1.91-.36-2.87-2.13-4.53-6.45,3.63.36,2.87ZM135.91,386.21c4.79-.66,4.6-2.2,5.79,2.48.96,3.79,4.88,1.36,3.21-1.78-1.3-2.46-9.58-6.46-9-.7ZM76.25,384.06c-.74.82,1.51,5.78,2.25,6.74,1.67,2.21,4.19,1.24,2.94-1.5-.41-.9-4.12-6.43-5.18-5.25ZM110.03,384.06c-.14-.14-3.52-.58-2.87,1.07.98,2.48,3.78-.16,2.87-1.07ZM92.77,389.09v-1.43h-.71v1.43h.71ZM73.37,394.13c0-.9.29-1.94-.7-2.54-2.97-1.77-6.55.5-2.89,2.17,1.17.53,2.36.41,3.59.36ZM110.03,391.97c-4.15-1.28-1.36,4.95,0,3.6v-3.6ZM119.38,391.98c-.07,2.06.73,8.03,3.94,7.2,3.43-.89-2.86-8.39-3.94-7.2ZM143.81,394.13h-2.16s0,2.17,0,2.17h2.16s0-2.17,0-2.17ZM149.56,394.86h-1.43v.71h1.43v-.71ZM155.28,402.74c.08-1.35,3.58-6.7,1.1-7.17-.43-.08-3.55,1.4-3.95,1.79-2.04,2-.14,6.1,2.85,5.38ZM110.03,397.01c-.73-1.13-1.28.18-1.6.91-.79,1.79-.54,4.23-2.36,5.57-1.86.44-2.21-3.83-3.64-4.27-2.78-.85-2.96,3.08-2.09,4.98.18.39,5.44,6.24,5.85,6.39,3.74,1.35,2.85-3.29,3.29-5.85.19-1.12,1.02-2.2,1.14-3.21.06-.52-.46-4.33-.58-4.52ZM112.98,400.69c-2.18,1.58,1.2,7.67,4.29,3.93,2.41-2.91-2.69-5.09-4.29-3.93ZM93.5,402.06c.17,1.51,1.35,9.04,3.22,8.63,3.26-.71,1.11-10.38-3.22-8.63ZM81.27,409.25c.22-1.41-.84-2.38-2.15-2.15l2.15,2.15ZM115.71,414.95c2.33-1.8-3.28-6.76-2.8.06.76-.12,2.38.27,2.8-.06ZM128.66,420c1.6-3.24-2.52-6.55-5.69-6.42-.01,3.56,1.47,7.55,5.69,6.42Z"/>
  <path d="M186.76,159.96c-3.14,3.15-8.55-4.41-10.98-6.29-4.36-3.38-9.43-6.41-14.53-8.49-2.29-.93-10.46-2.01-8.48-5.92.98-1.93,3.02-2.36,4.98-2.14,2.29.26,10.77,3.83,12.91,5.1,1.05.62,1.69,1.73,2.65,2.38,3.02,2.07,13.69,9.17,14.22,12.44.14.86-.18,2.31-.78,2.91Z"/>
  <path d="M129.43,94.61c-1.71,1.66-5.68-3.38-6.94-4.2-6.82-4.4-13,.44-19.34,1.27-13.59,1.78-25.2-7.14-38.69-5.64-5.02.56-10.93,3.74-15.18,4.25-1.43.17-1.4-.81-1.08-1.8.2-.61,6.77-3.27,7.91-3.61,1.47-.44,5.56-1.42,7-1.62,12.74-1.76,20.58,4.57,32.19,5.6,8.83.78,16.73-3.79,25.85-2.14,1.86.34,10.13,6.11,8.29,7.9Z"/>
  <path d="M142.2,132.23c1.31,1.35,1.16,3.59-.15,4.9-2.52,2.53-6.06-.55-8.85-1.28-2.97-.77-6.03-.6-8.81-1.26-4.84-1.15-18-10.46-11.89-15.55,3.16-2.63,4.85,3.44,6.51,5.1,6.16,6.15,19.4,4.18,23.19,8.08Z"/>
  <path d="M123.68,72.29c-3.27-.27-4.74-3.6-7.4-5.19-8.2-4.9-22.77.87-31.75,1.62-2.88.24-10.75,1.12-9.73-2.91,8.74,1.16,16.48-1.77,24.87-2.81,4.85-.6,10.79-1.4,15.36.3,1.98.73,10.59,6.96,8.64,8.98Z"/>
  <path d="M205.63,155.09c.17,1.64.5,3.5,1.09,5.03,5.02,12.98,15.39,22.11,21.93,34.19.5.92,2.38,4.27.33,4.7s-3.87-5.27-4.78-6.72c-5.16-8.17-19.71-24.9-20.68-33.31-.21-1.83-.31-4.02,2.11-3.89Z"/>
  <path d="M113.97,243.09c1.61-.13,4.9,4.21,5.68,5.68,3.56,6.66,2.76,13.89-5.3,16.16-2.21.62-9.52-.41-8.64-3.63,2.08-2.48,5.19-.13,7.74-.83,6.43-1.76,3.15-8.71.77-12.75-.49-.84-1.86-1.8-1.99-2.37-.15-.68,1.13-2.22,1.73-2.27Z"/>
  <path d="M78.19,248.12c1.77-.39,4.45-.25,6.32-.15,1.6.09,7.79.77,8.81,1.25,2.56,1.22,4.94,7.03,3.43,9.57-1.82,3.05-5.05-3.08-6.15-3.96-2.64-2.11-7.06-3.13-10.38-2.52-2.24.41-4.08,4.05-5.61.47-.84-1.97,1.69-4.26,3.58-4.67Z"/>
  <path d="M114.34,211.61c.46-1.61,2.88-.94,2.88,0v13.68c0,4.01,7.55,13.81,9.76,17.6.62,4.17-1.67,3.25-3.6.72-2.32-3.02-9.03-14.95-9.03-18.32,0-3-.61-11.58,0-13.68Z"/>
  <path d="M54.62,235.79c1.23.82.43,7.92,1.1,10.06.96,3.09,3.74,2.87,5.8,4.27s4.88,5.47,1.29,6.42c-1.85.49-2.62-1.6-3.86-2.41-2.94-1.94-6.5-3.71-7.54-7.57-.68-2.53-1.35-13.81,3.2-10.76Z"/>
  <path d="M133.75,256.62c.34-.35,1.85-.06,2.49.74.32.4,3.23,6.9,3.6,7.91.74,2.02,2.18,4.75.01,6.46-2.17-1.53-1.89-4.19-2.88-6.46-.63-1.45-4.28-7.55-3.22-8.64Z"/>
  <path d="M45.86,150.22c6.48-1.04,14.6-.34,18,6.11,3.74,7.08,4.56,13.69,3.89,21.45-.07.77.59,1.69.45,2.72-.15,1.1-1.58,3.23-2.36,4.14-5.17,5.97-16.59,4.77-23.37,2.49-7.51-2.52-17.32-10.74-16.58-19.44.56-6.52,13.65-16.45,19.97-17.47ZM63.3,171.65c.06-3.91-2.66-14.06-5.78-16.17-3.99-2.69-13.62-.82-17.73,1.62-2,1.19-9.97,8.53-9.56,10.58.6,3,4.02-.52,4.79-.95,5.21-2.89,15.3-1.99,20.64.69,2.7,1.36,4.56,4.19,7.63,4.23ZM44.61,183.17c.18-2.63-.94-4.86-.74-7.55.12-1.57,1.56-4.38,1.44-5-.51-2.53-11.07-1.64-11.49,4.33-.24,3.4,9.85,9.18,10.8,8.22Z"/>
  <path d="M71.93,344.45c2.53-.68,1.99,1.19,3.3,2.1,1.07.74,2.8.3,2.51,1.86l-6.53,15.12c-.9,1.64-5.13,4.47-4.31.73.37-1.68,2.12-2.59,3.02-4.17.45-.79,2.01-4.65,2.01-5.19v-10.44Z"/>
</svg>